<?xml version="1.0" encoding="UTF-8" standalone="no"?>
<svg
   xmlns:dc="http://purl.org/dc/elements/1.1/"
   xmlns:cc="http://creativecommons.org/ns#"
   xmlns:rdf="http://www.w3.org/1999/02/22-rdf-syntax-ns#"
   xmlns:svg="http://www.w3.org/2000/svg"
   xmlns="http://www.w3.org/2000/svg"
   id="svg65"
   xml:space="preserve"
   enable-background="new 0 0 400 140"
   viewBox="0 0 880 140"
   height="140"
   width="880"
   y="0px"
   x="0px"
   version="1.1"><metadata
     id="metadata71"><rdf:RDF><cc:Work
         rdf:about=""><dc:format>image/svg+xml</dc:format><dc:type
           rdf:resource="http://purl.org/dc/dcmitype/StillImage" /><dc:title></dc:title></cc:Work></rdf:RDF></metadata><defs
     id="defs69" /><g
     id="step0"><path
       style="fill:#443a31"
       id="path2"
       d="m 144.968,104.236 c 1.574,-2.071 2.371,-4.509 2.371,-7.258 0,-3.109 -1.138,-5.823 -3.376,-8.061 -2.173,-2.234 -4.899,-3.367 -8.102,-3.367 h -11.226 c -1.575,0 -2.677,1.1 -2.677,2.676 v 36.248 c 0,1.55 1.125,2.676 2.677,2.676 h 12.564 c 3.277,0 6.118,-1.178 8.442,-3.502 2.358,-2.356 3.554,-5.197 3.554,-8.443 v -1.596 c 0,-2.377 -0.66,-4.622 -1.96,-6.667 -0.635,-1.031 -1.396,-1.939 -2.267,-2.706 z m -6.72,-4.289 c -0.708,0.741 -1.674,1.1 -2.955,1.1 h -5.355 v -7.519 h 5.923 c 1.061,0 1.777,0.284 2.473,0.978 0.721,0.721 1.029,1.46 1.029,2.472 -0.001,1.268 -0.334,2.157 -1.115,2.969 z m -8.31,9.078 h 6.693 c 1.231,0 2.304,0.45 3.194,1.338 0.934,0.936 1.389,1.998 1.389,3.247 v 1.596 c 0,1.074 -0.387,1.984 -1.182,2.781 -0.808,0.807 -1.708,1.183 -2.833,1.183 h -7.26 z" /><path
       style="fill:#443a31"
       id="path4"
       d="m 169.867,84.983 c -3.862,0 -7.205,1.386 -9.937,4.12 -2.732,2.732 -4.118,6.075 -4.118,9.935 v 14.777 c 0,3.859 1.387,7.202 4.118,9.936 2.733,2.733 6.076,4.12 9.937,4.12 3.862,0 7.203,-1.386 9.935,-4.12 2.733,-2.733 4.12,-6.076 4.12,-9.935 V 99.039 c 0,-3.859 -1.388,-7.202 -4.12,-9.935 -2.732,-2.735 -6.073,-4.121 -9.935,-4.121 z m -6.076,14.054 c 0,-1.721 0.572,-3.095 1.801,-4.326 1.176,-1.177 2.576,-1.75 4.276,-1.75 1.701,0 3.099,0.573 4.273,1.751 1.231,1.229 1.803,2.604 1.803,4.326 v 14.777 c 0,1.75 -0.555,3.066 -1.803,4.276 -1.212,1.213 -2.611,1.802 -4.273,1.802 -1.664,0 -3.067,-0.595 -4.298,-1.827 -1.214,-1.174 -1.778,-2.525 -1.778,-4.251 z" /><path
       style="fill:#443a31"
       id="path6"
       d="m 240.283,85.549 h -8.958 c -1.577,0 -2.677,1.1 -2.677,2.675 v 36.249 c 0,1.551 1.125,2.676 2.677,2.676 h 10.297 c 3.757,0 7.012,-1.351 9.681,-4.017 2.664,-2.667 4.014,-5.924 4.014,-9.68 v -12.921 c 0,-4.1 -1.489,-7.667 -4.427,-10.605 -2.904,-2.905 -6.471,-4.377 -10.607,-4.377 z m 1.34,33.62 h -4.995 V 93.528 h 3.655 c 1.982,0 3.598,0.672 4.945,2.06 1.421,1.421 2.111,3.038 2.111,4.944 v 12.922 c 0,1.62 -0.538,2.893 -1.701,4.018 -1.154,1.157 -2.432,1.697 -4.015,1.697 z" /><path
       style="fill:#443a31"
       id="path8"
       d="m 285.012,119.169 h -13.233 v -10.195 h 11.018 c 1.496,0 2.625,-1.151 2.625,-2.677 v -2.625 c 0,-1.577 -1.081,-2.677 -2.625,-2.677 h -11.018 v -7.467 h 12.872 c 1.525,0 2.677,-1.151 2.677,-2.677 v -2.626 c 0,-1.55 -1.125,-2.675 -2.677,-2.675 h -18.176 c -1.576,0 -2.677,1.1 -2.677,2.675 v 36.249 c 0,1.551 1.126,2.676 2.677,2.676 h 18.538 c 1.549,0 2.676,-1.126 2.676,-2.676 v -2.628 c -0.001,-1.551 -1.128,-2.677 -2.677,-2.677 z" /><path
       style="fill:#443a31"
       id="path10"
       d="m 314.742,87.403 c -0.381,-1.143 -1.346,-1.854 -2.518,-1.854 h -4.839 c -1.19,0 -2.134,0.708 -2.53,1.904 l -10.997,35.964 c -0.144,0.318 -0.217,0.673 -0.217,1.057 0,1.55 1.125,2.676 2.674,2.676 h 2.729 c 1.239,0 2.266,-0.776 2.548,-1.902 l 3.251,-10.559 h 9.919 l 3.226,10.627 0.052,0.145 c 0.422,1.059 1.366,1.691 2.529,1.691 h 2.728 c 1.525,0 2.677,-1.15 2.677,-2.676 0,-0.386 -0.076,-0.743 -0.196,-0.989 z m -1.971,19.307 h -5.902 l 2.936,-9.949 z" /><path
       style="fill:#443a31"
       id="path12"
       d="m 355.724,85.549 h -2.625 c -1.549,0 -2.676,1.126 -2.676,2.675 v 26.463 c 0,1.511 -0.471,2.671 -1.493,3.658 -1.039,1.04 -2.234,1.546 -3.656,1.546 -1.44,0 -2.609,-0.497 -3.686,-1.572 -1.005,-0.973 -1.514,-2.193 -1.514,-3.632 V 88.224 c 0,-1.576 -1.103,-2.675 -2.676,-2.675 h -2.627 c -1.551,0 -2.677,1.126 -2.677,2.675 v 26.463 c 0,3.62 1.299,6.755 3.861,9.319 2.563,2.562 5.699,3.861 9.319,3.861 3.619,0 6.76,-1.303 9.334,-3.879 2.518,-2.579 3.794,-5.708 3.794,-9.302 V 88.223 c -10e-4,-1.573 -1.104,-2.674 -2.678,-2.674 z" /><path
       style="fill:#443a31"
       id="path14"
       d="m 383.344,106.256 9.292,-17.011 0.176,-0.485 c 0.247,-1.123 -0.12,-1.888 -0.477,-2.331 -0.287,-0.358 -0.941,-0.955 -2.098,-0.955 h -2.677 c -1.103,0 -2.026,0.608 -2.382,1.523 l -6.199,11.302 -6.171,-11.238 c -0.384,-0.979 -1.306,-1.587 -2.409,-1.587 h -2.676 c -1.161,0 -1.813,0.599 -2.099,0.955 -0.357,0.442 -0.726,1.206 -0.453,2.404 l 0.187,0.483 9.258,16.941 -9.262,16.886 -0.146,0.355 c -0.366,1.225 0.069,2.062 0.359,2.452 0.286,0.386 0.951,1.036 2.18,1.036 h 2.727 c 1.062,0 1.966,-0.603 2.401,-1.575 l 6.107,-11.171 6.088,11.132 c 0.451,1.011 1.357,1.615 2.42,1.615 h 2.728 c 1.223,0 1.887,-0.649 2.174,-1.035 0.294,-0.391 0.727,-1.229 0.344,-2.51 z" /><path
       style="fill:#443a31"
       id="path16"
       d="M 219.896,123.423 212.642,109.6 c 0.908,-0.521 1.764,-1.18 2.549,-1.965 2.29,-2.289 3.449,-5.078 3.449,-8.288 v -2.059 c 0,-3.246 -1.16,-6.052 -3.449,-8.34 -2.253,-2.255 -5.042,-3.398 -8.289,-3.398 h -11.686 c -1.575,0 -2.677,1.1 -2.677,2.675 v 36.249 c 0,1.551 1.126,2.676 2.677,2.676 h 2.627 c 1.524,0 2.674,-1.15 2.674,-2.676 v -13.39 h 4.25 l 7.477,14.293 c 0.452,1.021 1.36,1.632 2.428,1.632 h 2.729 c 1.226,0 1.891,-0.649 2.175,-1.035 0.292,-0.393 0.727,-1.234 0.359,-2.454 -0.009,-0.033 -0.022,-0.066 -0.039,-0.097 z m -9.233,-26.135 v 2.059 c 0,1.048 -0.337,1.833 -1.131,2.626 -0.795,0.794 -1.581,1.133 -2.629,1.133 h -6.385 v -9.578 h 6.385 c 1.041,0 1.892,0.346 2.594,1.047 0.818,0.854 1.166,1.665 1.166,2.713 z" /><path
       style="fill:#443a31"
       id="path18"
       d="m 98.63,103.422 h -0.803 c -0.196,0 -0.269,-0.098 -0.269,-0.268 v -0.219 c 0,-0.195 -0.097,-0.268 -0.268,-0.268 -0.073,0 -0.121,0 -0.146,0.048 -0.902,0.707 -1.877,1.048 -2.951,1.048 -1.292,0 -2.388,-0.464 -3.316,-1.389 -0.927,-0.926 -1.39,-2.025 -1.39,-3.316 v -3.706 c 0,-1.292 0.463,-2.389 1.39,-3.316 0.902,-0.926 2.024,-1.365 3.316,-1.365 0.902,0 1.732,0.219 2.463,0.707 0.049,0.024 0.097,0.049 0.195,0.049 0.171,0 0.243,-0.073 0.243,-0.22 V 85.99 c 0,-0.196 0.098,-0.269 0.268,-0.269 h 1.268 c 0.171,0 0.243,0.074 0.243,0.269 v 17.164 c 10e-4,0.171 -0.072,0.268 -0.243,0.268 z m -1.536,-8.07 c 0,-0.804 -0.267,-1.487 -0.853,-2.048 -0.585,-0.585 -1.268,-0.853 -2.048,-0.853 -0.804,0 -1.511,0.268 -2.072,0.853 -0.561,0.561 -0.854,1.243 -0.854,2.048 v 3.706 c 0,0.804 0.293,1.487 0.854,2.072 0.56,0.561 1.267,0.853 2.072,0.853 0.805,0 1.487,-0.293 2.048,-0.853 0.586,-0.585 0.853,-1.268 0.853,-2.072 z" /><path
       style="fill:#443a31"
       id="path20"
       d="m 110.624,98.01 h -6.632 c -0.171,0 -0.269,0.097 -0.269,0.268 v 0.756 c 0,0.829 0.294,1.511 0.855,2.072 0.584,0.585 1.267,0.878 2.072,0.878 1.023,0 1.95,-0.293 2.78,-0.878 0.122,-0.097 0.244,-0.073 0.341,0.048 l 0.732,1.049 c 0.098,0.121 0.073,0.268 -0.074,0.366 -1.097,0.804 -2.366,1.194 -3.779,1.194 -1.292,0 -2.389,-0.464 -3.316,-1.39 -0.927,-0.926 -1.391,-2.024 -1.391,-3.34 v -3.901 c 0,-1.243 0.439,-2.291 1.318,-3.169 0.877,-0.853 1.926,-1.292 3.145,-1.292 1.243,0 2.293,0.439 3.17,1.316 0.878,0.878 1.292,1.926 1.292,3.145 v 2.609 c -10e-4,0.171 -0.074,0.269 -0.244,0.269 z m -1.537,-2.878 c 0,-0.731 -0.244,-1.365 -0.78,-1.901 -0.536,-0.536 -1.169,-0.78 -1.902,-0.78 -0.73,0 -1.365,0.244 -1.877,0.78 -0.536,0.536 -0.805,1.171 -0.805,1.901 v 0.829 c 0,0.171 0.098,0.268 0.269,0.268 h 4.851 c 0.172,0 0.244,-0.097 0.244,-0.268 z" /><path
       style="fill:#443a31"
       id="path22"
       d="m 17.76,48.177 v 12.461 c 0,2.334 0.807,4.348 2.495,6.038 1.691,1.691 3.624,2.495 6.039,2.495 2.335,0 4.348,-0.804 5.958,-2.495 1.691,-1.691 2.576,-3.705 2.576,-6.038 v -26.89 c 0,-0.564 0.241,-0.804 0.805,-0.804 h 4.186 c 0.564,0 0.886,0.24 0.886,0.804 v 26.89 c 0,3.945 -1.45,7.326 -4.267,10.144 -2.818,2.817 -6.199,4.267 -10.145,4.267 -3.944,0 -7.406,-1.45 -10.225,-4.267 -2.817,-2.817 -4.186,-6.199 -4.186,-10.144 v -6.42 z" /><path
       style="fill:#443a31"
       id="path24"
       d="m 134.132,42.638 -6.656,18.335 c -0.161,0.322 -0.323,0.402 -0.645,0.402 -0.241,0 -0.483,-0.08 -0.565,-0.402 l -9.982,-27.526 c -0.241,-0.564 -0.562,-0.877 -1.046,-0.877 h -4.348 c -0.805,0 -1.127,0.475 -0.805,1.279 l 14.249,39.271 c 0.161,0.483 0.403,0.949 0.886,0.949 h 3.3 c 0.403,0 0.724,-0.43 0.885,-0.913 l 9.63,-26.69 z" /><path
       style="fill:#443a31"
       id="path26"
       d="m 195.096,49.17 v 23.936 c 0,0.562 -0.322,0.884 -0.886,0.884 h -4.105 c -0.564,0 -0.886,-0.321 -0.886,-0.884 V 56.038 Z" /><path
       style="fill:#443a31"
       id="path28"
       d="m 232.756,39.262 c -2.477,-0.951 -5.107,-1.413 -7.893,-1.413 -1.529,0 -2.817,0.481 -3.944,1.61 -1.048,1.046 -1.53,2.334 -1.53,3.865 0,2.656 1.288,4.347 3.945,5.071 l 8.453,2.255 c 2.817,0.724 4.991,2.255 6.682,4.429 1.61,2.173 2.495,4.67 2.495,7.407 0,3.542 -1.287,6.52 -3.784,9.017 -2.495,2.415 -5.474,3.703 -8.936,3.703 -5.878,0 -11.352,-1.45 -16.262,-4.429 -0.563,-0.322 -0.645,-0.725 -0.321,-1.288 l 2.093,-3.542 c 0.241,-0.483 0.643,-0.483 1.126,-0.242 4.105,2.416 8.615,3.624 13.364,3.624 1.853,0 3.462,-0.645 4.831,-2.012 1.289,-1.288 2.013,-2.899 2.013,-4.831 0,-1.369 -0.484,-2.658 -1.369,-3.864 -0.886,-1.207 -2.013,-1.851 -3.382,-2.254 l -8.532,-2.335 c -2.497,-0.644 -4.51,-2.013 -6.039,-4.025 -1.529,-2.014 -2.255,-4.267 -2.255,-6.682 0,-3.14 1.048,-5.798 3.301,-8.051 2.254,-2.255 4.912,-3.3 8.051,-3.3 3.518,0 6.917,0.6 10.14,1.856 z" /><path
       style="fill:#443a31"
       id="path30"
       d="m 257.656,24.316 c -0.724,0.805 -1.691,1.208 -2.817,1.208 -1.047,0 -2.012,-0.403 -2.738,-1.208 -0.805,-0.724 -1.207,-1.691 -1.207,-2.736 0,-1.127 0.403,-2.093 1.207,-2.817 0.726,-0.807 1.691,-1.128 2.738,-1.128 1.127,0 2.093,0.322 2.817,1.128 0.805,0.725 1.207,1.691 1.207,2.817 0,1.046 -0.402,2.013 -1.207,2.736 z m -0.724,49.593 h -4.105 c -0.645,0 -0.885,-0.322 -0.885,-0.885 V 33.736 c 0,-0.564 0.24,-0.804 0.885,-0.804 h 4.105 c 0.562,0 0.885,0.241 0.885,0.804 v 39.288 c 10e-4,0.563 -0.322,0.885 -0.885,0.885 z" /><path
       style="fill:#443a31"
       id="path32"
       d="m 328.862,55.967 h -21.898 c -0.562,0 -0.886,0.322 -0.886,0.885 v 2.495 c 0,2.737 0.967,4.991 2.819,6.844 1.931,1.931 4.186,2.898 6.842,2.898 3.381,0 6.441,-0.967 9.18,-2.898 0.403,-0.323 0.805,-0.243 1.127,0.16 l 2.415,3.462 c 0.321,0.402 0.242,0.886 -0.241,1.208 -3.623,2.657 -7.81,3.945 -12.479,3.945 -4.268,0 -7.89,-1.531 -10.949,-4.589 -3.058,-3.06 -4.589,-6.682 -4.589,-11.031 v -12.88 c 0,-4.107 1.45,-7.568 4.348,-10.468 2.898,-2.817 6.36,-4.265 10.384,-4.265 4.106,0 7.568,1.449 10.466,4.346 2.898,2.898 4.267,6.361 4.267,10.387 v 8.613 c -0.001,0.567 -0.242,0.888 -0.806,0.888 z m -5.073,-9.499 c 0,-2.416 -0.805,-4.51 -2.576,-6.282 -1.77,-1.77 -3.863,-2.575 -6.28,-2.575 -2.415,0 -4.508,0.804 -6.198,2.575 -1.772,1.771 -2.658,3.865 -2.658,6.282 v 2.737 c 0,0.563 0.323,0.885 0.886,0.885 h 16.021 c 0.565,0 0.805,-0.322 0.805,-0.885 z" /><path
       style="fill:#443a31"
       id="path34"
       d="m 100.975,45.024 v 28.091 c 0,0.563 -0.322,0.885 -0.885,0.885 H 95.984 C 95.34,74 95.099,73.678 95.099,73.115 V 45.024 Z" /><path
       style="fill:#443a31"
       id="path36"
       d="M 150.339,57.157 V 46.542 c 0,-4.105 1.45,-7.567 4.348,-10.466 2.898,-2.818 6.36,-4.267 10.386,-4.267 4.106,0 7.569,1.449 10.467,4.347 2.898,2.898 4.267,6.361 4.267,10.385 v 8.616 c 0,0.563 -0.24,0.885 -0.805,0.885 h -21.898 c -0.564,0 -0.885,0.322 -0.885,0.886 v 2.495 c 0,0.733 0.07,1.432 0.207,2.098 z M 173.93,46.542 c 0,-2.415 -0.806,-4.508 -2.577,-6.278 -1.772,-1.773 -3.865,-2.576 -6.28,-2.576 -2.414,0 -4.509,0.803 -6.199,2.576 -1.77,1.77 -2.655,3.864 -2.655,6.278 v 2.739 c 0,0.563 0.321,0.884 0.885,0.884 h 16.02 c 0.565,0 0.806,-0.321 0.806,-0.884 z" /><path
       style="fill:#443a31"
       id="path38"
       d="m 279.175,43.851 v 16.48 c 0,2.577 0.885,4.751 2.656,6.521 1.772,1.771 3.945,2.657 6.522,2.657 2.093,0 4.267,-0.645 6.441,-2.012 0.562,-0.322 0.884,-0.242 1.288,0.241 l 2.335,3.301 c 0.322,0.482 0.241,0.886 -0.242,1.207 -2.899,2.094 -6.199,3.14 -9.822,3.14 -4.186,0 -7.649,-1.449 -10.628,-4.428 -2.979,-2.979 -4.43,-6.441 -4.43,-10.628 V 41.812 Z" /><path
       style="fill:#443a31"
       id="path40"
       d="M 76.353,62.883 V 46.341 c 0,-2.334 -0.805,-4.346 -2.496,-5.956 -1.69,-1.691 -3.703,-2.498 -6.037,-2.498 -2.336,0 -4.348,0.807 -6.039,2.498 -1.609,1.61 -2.495,3.622 -2.495,5.956 v 26.891 c 0,0.562 -0.242,0.885 -0.886,0.885 h -4.106 c -0.564,0 -0.886,-0.322 -0.886,-0.885 V 46.341 c 0,-3.943 1.449,-7.326 4.268,-10.144 2.817,-2.818 6.198,-4.187 10.144,-4.187 3.944,0 7.326,1.368 10.143,4.187 2.819,2.817 4.267,6.2 4.267,10.144 v 13.311 z" /><path
       style="fill:#009fe3"
       id="path42"
       d="m 320.242,14.882 c -0.828,1.037 -1.727,2.696 -2.627,3.732 -1.035,0.899 -2.417,3.042 -3.385,3.87 0,0.207 -0.621,0.898 -0.621,0.898 -0.345,0.968 -0.623,0.76 -1.105,1.175 -0.762,0.761 -1.59,0.83 -2.143,0.415 -1.177,-0.76 0.76,-3.456 1.727,-4.561 0.138,-0.207 0.138,-0.345 0.138,-0.552 0.277,-0.484 0.484,-1.036 0.76,-1.451 0.277,-0.277 0.484,-0.277 0.692,-0.414 -0.069,-0.485 0.552,-1.174 0.691,-1.589 0.345,-0.415 0.208,-1.106 0.623,-1.521 0.552,-0.484 0.69,-0.83 0.965,-1.451 0.279,0 0.693,-0.483 0.693,-0.483 0.138,-0.622 0.276,-1.313 0.552,-1.867 0,0 0.208,-0.276 0.346,-0.276 0.552,-0.622 0.622,-1.589 1.176,-2.143 0.414,-0.276 1.244,-0.414 1.797,-0.276 0.966,0.276 2.073,0.691 2.901,1.935 0.138,2.002 -1.935,3.315 -3.18,4.559 z" /><path
       style="fill:#009fe3"
       id="path44"
       d="m 201.413,31.829 c -2.701,0 -4.253,1.242 -6.253,4.742 h -0.116 v -4 h -11 v 3.5 h 3.163 c 1.401,0 1.87,0.302 1.87,1.754 l 0.143,17.981 5.877,-6.901 0.08,-7.122 c 0,-3.223 2.068,-7.334 6.17,-7.334 0.75,0 1.534,0.097 2.084,0.697 -1.801,0.049 -3.31,1.098 -3.31,2.999 0,2.051 1.598,3.201 3.548,3.201 2.45,0 3.8,-1.857 3.8,-4.109 0,-3.652 -2.854,-5.408 -6.056,-5.408 z" /><path
       style="fill:#009fe3"
       id="path46"
       d="m 235.001,33.828 c 1.845,0 3.298,-1.142 4.189,-3.305 h 3.339 v 21.278 h -3.911 c -0.636,-5.344 -2.682,-9.391 -5.863,-12.538 z" /><rect
       style="fill:#009fe3"
       id="rect48"
       height="7.4749999"
       width="5.737"
       y="17.604"
       x="95.174004" /><path
       style="fill:#009fe3"
       id="path50"
       d="m 100.15,30.57 c -1.981,3 -3.606,4.073 -9.606,4.548 v 1.902 c 1.5,0 3.772,-0.204 4.406,1.618 0.215,0.648 0.154,-0.068 0.15,6.432 h 5.877 c 0,-6.5 0.206,-11 0.839,-14.5 z" /><path
       style="fill:#009fe3"
       id="path52"
       d="m 143.134,35.386 c 2.635,0 2.635,0.082 3.458,0.082 0.577,0 1.234,-0.576 1.234,-1.482 0,-0.822 -0.658,-1.398 -1.234,-1.398 -0.823,0 -1.318,0.411 -6.666,0.411 h -0.247 c -5.597,0 -5.76,-0.411 -6.584,-0.411 -0.657,0 -1.317,0.576 -1.317,1.398 0,0.906 0.66,1.482 1.317,1.482 0.823,0 0.906,-0.082 3.704,-0.082 l -2.667,7.55 4.906,3.766 z" /><path
       style="fill:#009fe3"
       id="path54"
       d="m 162.101,68.485 c 2.927,1.796 6.344,2.498 9.245,2.498 5.757,0 8.374,-2.094 8.898,-2.094 0.435,0 0.435,0.523 0.435,0.699 0,0.436 -6.629,5.582 -13.693,5.582 -7.153,0 -16.646,-3.448 -16.646,-18.014 l 6.085,4.365 c 1.177,3.232 3.244,5.471 5.676,6.964" /><path
       style="fill:#009fe3"
       id="path56"
       d="M 273.297,41.819 V 38.68 c -2.017,-0.154 -4.488,0 -6.427,0.776 l -0.543,-0.388 c 0.931,-2.636 3.879,-4.422 6.827,-4.422 1.318,-0.775 1.241,-8.011 2.327,-9.328 0.466,-0.543 2.034,-1.552 3.201,-2.56 0.543,0.853 -0.931,11.191 0.543,11.424 5.275,0.93 10.765,1.164 15.729,-0.388 1.008,0.776 0,1.708 -0.466,2.405 -4.19,3.879 -9.882,2.25 -15.312,2.406 v 5.252 z" /><polygon
       style="fill:#009fe3"
       id="polygon58"
       points="17.766,32.95 6.252,32.95 6.252,37.349 11.883,37.349 11.883,54.218 17.76,48.177 " /><g
       id="g62"><path
         style="fill:#009fe3"
         id="path60"
         d="M 82.654,71.077 C 82.07,69.296 82.068,63.84 82.068,59.353 l -5.796,3.231 0.149,6.327 c 0,2.644 0.365,4.826 0.891,6.546 3.578,-1.322 7.23,-2.458 10.23,-3.411 v -2.074 c -0.998,0.676 -3.292,1.045 -4.888,1.105 z" /></g></g><rect
     y="4.6639996"
     x="436.724"
     height="67.050285"
     width="347.94266"
     id="rect4548"
     style="opacity:0.98999999;fill:#009de0;fill-opacity:1;fill-rule:nonzero;stroke:none;stroke-width:0.61228347;stroke-miterlimit:4;stroke-dasharray:none;stroke-opacity:1" /><rect
     style="opacity:0.98999999;fill:#443a31;fill-opacity:1;fill-rule:nonzero;stroke:none;stroke-width:0.65551072;stroke-miterlimit:4;stroke-dasharray:none;stroke-opacity:1"
     id="rect4550"
     width="398.80649"
     height="67.050285"
     x="476.724"
     y="70.664001" /><text
     id="text4554"
     y="49.492065"
     x="471.17459"
     style="font-style:normal;font-weight:normal;font-size:40px;line-height:0;font-family:sans-serif;letter-spacing:0px;word-spacing:0px;fill:#000000;fill-opacity:1;stroke:none"
     xml:space="preserve"><tspan
       style="font-style:italic;font-variant:normal;font-weight:500;font-stretch:normal;font-size:53.33333206px;font-family:'Brix Slab';-inkscape-font-specification:'Brix Slab Medium Italic';fill:#ffffff"
       y="49.492065"
       x="471.17459"
       id="tspan4552">plateforme</tspan></text>
<text
     xml:space="preserve"
     style="font-style:normal;font-weight:normal;font-size:40px;line-height:0;font-family:sans-serif;letter-spacing:0px;word-spacing:0px;fill:#000000;fill-opacity:1;stroke:none"
     x="513.61902"
     y="118.57143"
     id="text4558"><tspan
       id="tspan4556"
       x="513.61902"
       y="118.57143"
       style="font-style:italic;font-variant:normal;font-weight:500;font-stretch:normal;font-size:53.33333206px;font-family:'Brix Slab';-inkscape-font-specification:'Brix Slab Medium Italic';fill:#ffffff">e-Portfolio</tspan></text>
</svg>